<svg width="397" height="473" viewBox="0 0 397 473" fill="none" xmlns="http://www.w3.org/2000/svg">
<g clip-path="url(#clip0_17_12)">
<path opacity="0.0946098" d="M78.8773 400.618L50.4423 386.777C48.7106 385.918 46.5819 386.076 44.9354 387.168L18.5101 404.904C16.8636 405.995 15.9659 407.891 16.0512 409.841L18.0609 441.419C18.1806 443.415 19.3771 445.107 21.1088 445.965L49.5439 459.806C51.2755 460.665 53.4043 460.507 55.0507 459.416L81.476 441.679C83.1225 440.588 84.0202 438.692 83.935 436.742L81.9252 405.164C81.84 403.214 80.6899 401.488 78.8773 400.618Z" fill="url(#paint0_linear_17_12)"/>
</g>
<g clip-path="url(#clip1_17_12)">
<path opacity="0.0946098" d="M103.36 357.645L86.6469 349.51C85.6291 349.005 84.378 349.098 83.4102 349.739L67.8787 360.164C66.911 360.806 66.3834 361.92 66.4334 363.066L67.6147 381.626C67.685 382.799 68.3883 383.793 69.4061 384.298L86.1189 392.433C87.1367 392.938 88.3878 392.845 89.3556 392.204L104.887 381.779C105.855 381.137 106.382 380.023 106.332 378.877L105.151 360.317C105.101 359.171 104.425 358.156 103.36 357.645Z" fill="url(#paint1_linear_17_12)"/>
</g>
<g clip-path="url(#clip2_17_12)">
<path opacity="0.0946098" d="M100.479 400.886L95.2588 398.346C94.9409 398.188 94.5502 398.217 94.248 398.417L89.3972 401.673C89.0949 401.873 88.9301 402.222 88.9458 402.579L89.3147 408.376C89.3367 408.742 89.5563 409.053 89.8742 409.211L95.0939 411.751C95.4118 411.909 95.8026 411.88 96.1048 411.68L100.956 408.424C101.258 408.223 101.423 407.875 101.407 407.517L101.038 401.721C101.022 401.363 100.811 401.046 100.479 400.886Z" fill="url(#paint2_linear_17_12)"/>
</g>
<g clip-path="url(#clip3_17_12)">
<path opacity="0.0946098" d="M396.615 28.9912L387.909 11.8407C387.384 10.7885 386.3 10.087 385.111 10.0169L365.951 8.99978C364.762 8.92964 363.643 9.52587 362.979 10.5079L352.524 26.6414C351.86 27.6585 351.825 28.9211 352.349 29.9733L361.055 47.1238C361.58 48.176 362.664 48.8775 363.853 48.9476L383.014 49.9647C384.202 50.0349 385.321 49.4386 385.986 48.4566L396.44 32.3231C397.104 31.3411 397.174 30.0785 396.615 28.9912Z" fill="url(#paint3_linear_17_12)"/>
</g>
<g clip-path="url(#clip4_17_12)">
<path opacity="0.0946098" d="M355.803 10.2394L351.353 1.45502C351.085 0.916096 350.531 0.556814 349.924 0.520886L340.13 -7.19468e-05C339.523 -0.0360001 338.951 0.269389 338.611 0.772383L333.268 9.03586C332.928 9.55681 332.911 10.2035 333.179 10.7424L337.628 19.5269C337.897 20.0658 338.451 20.4251 339.058 20.461L348.851 20.982C349.459 21.0179 350.031 20.7125 350.371 20.2095L355.714 11.946C356.054 11.443 356.089 10.7963 355.803 10.2394Z" fill="url(#paint4_linear_17_12)"/>
</g>
<defs>
<linearGradient id="paint0_linear_17_12" x1="16.6497" y1="407.045" x2="83.1904" y2="439.982" gradientUnits="userSpaceOnUse">
<stop stop-color="#D4145A"/>
<stop offset="1" stop-color="#2E3192"/>
</linearGradient>
<linearGradient id="paint1_linear_17_12" x1="66.7852" y1="361.423" x2="105.895" y2="380.781" gradientUnits="userSpaceOnUse">
<stop stop-color="#D4145A"/>
<stop offset="1" stop-color="#2E3192"/>
</linearGradient>
<linearGradient id="paint2_linear_17_12" x1="89.0557" y1="402.066" x2="101.27" y2="408.112" gradientUnits="userSpaceOnUse">
<stop stop-color="#D4145A"/>
<stop offset="1" stop-color="#2E3192"/>
</linearGradient>
<linearGradient id="paint3_linear_17_12" x1="364.279" y1="9.36329" x2="384.812" y2="49.5815" gradientUnits="userSpaceOnUse">
<stop stop-color="#D4145A"/>
<stop offset="1" stop-color="#2E3192"/>
</linearGradient>
<linearGradient id="paint4_linear_17_12" x1="339.276" y1="0.186114" x2="349.806" y2="20.7676" gradientUnits="userSpaceOnUse">
<stop stop-color="#D4145A"/>
<stop offset="1" stop-color="#2E3192"/>
</linearGradient>
<clipPath id="clip0_17_12">
<rect width="74.6415" height="67.2594" fill="white" transform="translate(0 418.79) rotate(-36.8746)"/>
</clipPath>
<clipPath id="clip1_17_12">
<rect width="43.8708" height="39.5319" fill="white" transform="translate(57 368.325) rotate(-36.8746)"/>
</clipPath>
<clipPath id="clip2_17_12">
<rect width="13.7017" height="12.3465" fill="white" transform="translate(86 404.222) rotate(-36.8746)"/>
</clipPath>
<clipPath id="clip3_17_12">
<rect width="45" height="41" fill="white" transform="translate(352 9)"/>
</clipPath>
<clipPath id="clip4_17_12">
<rect width="23" height="21" fill="white" transform="translate(333)"/>
</clipPath>
</defs>
</svg>
